<?xml version="1.0" encoding="utf-8"?>
<!-- Generator: Adobe Illustrator 25.4.1, SVG Export Plug-In . SVG Version: 6.00 Build 0)  -->
<svg version="1.1" id="livetype" xmlns="http://www.w3.org/2000/svg" xmlns:xlink="http://www.w3.org/1999/xlink" x="0px" y="0px"
	 viewBox="0 0 119.7 40" style="enable-background:new 0 0 119.7 40;" xml:space="preserve">
<style type="text/css">
	.st0{fill:#A6A6A6;}
	.st1{fill:#FFFFFF;}
	.st2{fill:url(#path64_00000079443767024234645650000005433534386089521293_);}
	.st3{fill:url(#path78_00000094587866427503199050000016969487984634099860_);}
	.st4{fill:url(#path88_00000131362880563944619950000013028583548198792353_);}
	.st5{fill:url(#path104_00000066481212034883723810000006941007519043289518_);}
</style>
<g>
	<g>
		<g>
			<path class="st0" d="M110.1,0H9.5C9.2,0,8.8,0,8.4,0C8.1,0,7.8,0,7.5,0c-0.7,0-1.3,0.1-2,0.2C4.9,0.3,4.2,0.5,3.6,0.8
				C3,1.1,2.5,1.5,2,2C1.5,2.5,1.1,3,0.8,3.6C0.5,4.2,0.3,4.9,0.2,5.5C0.1,6.2,0,6.9,0,7.5c0,0.3,0,0.6,0,0.9v23.1
				c0,0.3,0,0.6,0,0.9c0,0.7,0.1,1.3,0.2,2c0.1,0.7,0.3,1.3,0.6,1.9C1.1,37,1.5,37.5,2,38c0.5,0.5,1,0.9,1.6,1.2
				c0.6,0.3,1.2,0.5,1.9,0.6c0.7,0.1,1.3,0.2,2,0.2c0.3,0,0.6,0,0.9,0c0.4,0,0.7,0,1.1,0h100.6c0.4,0,0.7,0,1.1,0c0.3,0,0.6,0,0.9,0
				c0.7,0,1.3-0.1,2-0.2c0.7-0.1,1.3-0.3,1.9-0.6c0.6-0.3,1.1-0.7,1.6-1.2c0.5-0.5,0.9-1,1.2-1.6c0.3-0.6,0.5-1.2,0.6-1.9
				c0.1-0.7,0.2-1.3,0.2-2c0-0.3,0-0.6,0-0.9c0-0.4,0-0.7,0-1.1V9.5c0-0.4,0-0.7,0-1.1c0-0.3,0-0.6,0-0.9c0-0.7-0.1-1.3-0.2-2
				c-0.1-0.7-0.3-1.3-0.6-1.9c-0.6-1.2-1.6-2.2-2.8-2.8c-0.6-0.3-1.2-0.5-1.9-0.6c-0.7-0.1-1.3-0.2-2-0.2c-0.3,0-0.6,0-0.9,0
				C110.9,0,110.5,0,110.1,0L110.1,0z"/>
			<path d="M8.4,39.1c-0.3,0-0.6,0-0.9,0c-0.6,0-1.3-0.1-1.9-0.2c-0.6-0.1-1.1-0.3-1.7-0.5c-0.5-0.3-1-0.6-1.4-1
				c-0.4-0.4-0.8-0.9-1-1.4c-0.3-0.5-0.4-1.1-0.5-1.7c-0.1-0.6-0.2-1.2-0.2-1.9c0-0.2,0-0.9,0-0.9V8.4c0,0,0-0.7,0-0.9
				c0-0.6,0.1-1.3,0.2-1.9C1.1,5.1,1.3,4.5,1.6,4c0.3-0.5,0.6-1,1-1.4C3,2.2,3.5,1.9,4,1.6c0.5-0.3,1.1-0.4,1.7-0.5
				c0.6-0.1,1.2-0.2,1.9-0.2l0.9,0h102.8l0.9,0c0.6,0,1.2,0.1,1.9,0.2c0.6,0.1,1.1,0.3,1.7,0.5c1,0.5,1.9,1.4,2.4,2.4
				c0.3,0.5,0.4,1.1,0.5,1.6c0.1,0.6,0.2,1.3,0.2,1.9c0,0.3,0,0.6,0,0.9c0,0.4,0,0.7,0,1.1v20.9c0,0.4,0,0.7,0,1.1
				c0,0.3,0,0.6,0,0.9c0,0.6-0.1,1.2-0.2,1.9c-0.1,0.6-0.3,1.1-0.5,1.7c-0.3,0.5-0.6,1-1,1.4c-0.4,0.4-0.9,0.8-1.4,1
				c-0.5,0.3-1.1,0.5-1.7,0.5c-0.6,0.1-1.2,0.2-1.9,0.2c-0.3,0-0.6,0-0.9,0l-1.1,0L8.4,39.1z"/>
		</g>
	</g>
</g>
<g>
	<path id="path46" class="st1" d="M60.6,21.7c-2,0-3.7,1.5-3.7,3.7c0,2.1,1.7,3.7,3.7,3.7c2,0,3.7-1.6,3.7-3.7
		C64.3,23.3,62.6,21.7,60.6,21.7z M60.6,27.6c-1.1,0-2.1-0.9-2.1-2.2c0-1.3,1-2.2,2.1-2.2c1.1,0,2.1,0.9,2.1,2.2
		C62.7,26.7,61.7,27.6,60.6,27.6z M52.5,21.7c-2,0-3.7,1.5-3.7,3.7c0,2.1,1.7,3.7,3.7,3.7c2,0,3.7-1.6,3.7-3.7
		C56.2,23.3,54.5,21.7,52.5,21.7z M52.5,27.6c-1.1,0-2.1-0.9-2.1-2.2c0-1.3,1-2.2,2.1-2.2c1.1,0,2.1,0.9,2.1,2.2
		C54.6,26.7,53.6,27.6,52.5,27.6z M42.9,22.9v1.6h3.8c-0.1,0.9-0.4,1.5-0.9,2c-0.5,0.5-1.4,1.1-2.9,1.1c-2.3,0-4.1-1.8-4.1-4.1
		s1.8-4.1,4.1-4.1c1.3,0,2.2,0.5,2.8,1.1l1.1-1.1c-0.9-0.9-2.2-1.6-3.9-1.6c-3.2,0-5.8,2.5-5.8,5.7s2.7,5.7,5.8,5.7
		c1.7,0,3-0.6,4-1.6c1-1,1.4-2.5,1.4-3.6c0-0.4,0-0.7-0.1-1H42.9z M82.3,24.1c-0.3-0.8-1.2-2.3-3.2-2.3c-1.9,0-3.5,1.5-3.5,3.7
		c0,2,1.6,3.7,3.7,3.7c1.7,0,2.7-1,3.1-1.6l-1.3-0.8c-0.4,0.6-1,1-1.8,1c-0.8,0-1.4-0.4-1.8-1.1l5-2L82.3,24.1z M77.2,25.3
		c0-1.4,1.1-2.1,1.9-2.1c0.6,0,1.2,0.3,1.4,0.8L77.2,25.3z M73.2,28.8h1.6V18.1h-1.6V28.8z M70.5,22.6L70.5,22.6
		c-0.4-0.4-1.1-0.8-2-0.8c-1.9,0-3.5,1.6-3.5,3.7c0,2.1,1.7,3.6,3.5,3.6c0.9,0,1.6-0.4,1.9-0.8h0.1v0.5c0,1.4-0.8,2.2-2,2.2
		c-1,0-1.6-0.7-1.9-1.3l-1.4,0.6c0.4,1,1.5,2.2,3.3,2.2c1.9,0,3.5-1.1,3.5-3.8V22h-1.5V22.6z M68.7,27.6c-1.1,0-2.1-0.9-2.1-2.2
		c0-1.3,0.9-2.2,2.1-2.2c1.1,0,2,0.9,2,2.2C70.7,26.7,69.8,27.6,68.7,27.6z M89.9,18.1H86v10.8h1.6v-4.1h2.3c1.8,0,3.6-1.3,3.6-3.3
		C93.5,19.4,91.7,18.1,89.9,18.1z M90,23.3h-2.3v-3.7H90c1.2,0,1.9,1,1.9,1.8C91.9,22.3,91.2,23.3,90,23.3z M100,21.7
		c-1.2,0-2.4,0.5-2.9,1.6l1.4,0.6c0.3-0.6,0.9-0.8,1.5-0.8c0.8,0,1.7,0.5,1.7,1.4v0.1c-0.3-0.2-0.9-0.4-1.7-0.4
		c-1.6,0-3.1,0.8-3.1,2.4c0,1.4,1.3,2.4,2.7,2.4c1.1,0,1.7-0.5,2.1-1.1h0.1v0.8h1.6v-4.1C103.3,22.8,101.9,21.7,100,21.7z
		 M99.8,27.6c-0.5,0-1.3-0.3-1.3-0.9c0-0.8,0.9-1.2,1.7-1.2c0.7,0,1,0.2,1.5,0.4C101.6,26.9,100.7,27.6,99.8,27.6z M109,22l-1.9,4.7
		h-0.1l-1.9-4.7h-1.8l2.9,6.5l-1.7,3.6h1.7l4.5-10.1H109z M94.4,28.8H96V18.1h-1.6V28.8z"/>
	<g id="g48">
		
			<linearGradient id="path64_00000034774710040526737200000003497721616972470150_" gradientUnits="userSpaceOnUse" x1="29.1189" y1="-143.2193" x2="14.5454" y2="-128.6458" gradientTransform="matrix(1.0024 0 0 -0.9907 -8.922 -111.9367)">
			<stop  offset="0" style="stop-color:#00A0FF"/>
			<stop  offset="6.600000e-03" style="stop-color:#00A1FF"/>
			<stop  offset="0.2601" style="stop-color:#00BEFF"/>
			<stop  offset="0.5122" style="stop-color:#00D2FF"/>
			<stop  offset="0.7604" style="stop-color:#00DFFF"/>
			<stop  offset="1" style="stop-color:#00E3FF"/>
		</linearGradient>
		<path id="path64" style="fill:url(#path64_00000034774710040526737200000003497721616972470150_);" d="M10.4,9.5
			c-0.3,0.3-0.4,0.7-0.4,1.2v19c0,0.5,0.1,0.9,0.4,1.2l0.1,0.1l10.8-10.7v-0.3L10.4,9.5L10.4,9.5z"/>
	</g>
	<g id="g66">
		
			<linearGradient id="path78_00000183935757029055499530000011422543414374155658_" gradientUnits="userSpaceOnUse" x1="39.5702" y1="-133.4142" x2="18.5585" y2="-133.4142" gradientTransform="matrix(1.0024 0 0 -0.9907 -8.922 -111.9367)">
			<stop  offset="0" style="stop-color:#FFE000"/>
			<stop  offset="0.4087" style="stop-color:#FFBD00"/>
			<stop  offset="0.7754" style="stop-color:#FFA500"/>
			<stop  offset="1" style="stop-color:#FF9C00"/>
		</linearGradient>
		<path id="path78" style="fill:url(#path78_00000183935757029055499530000011422543414374155658_);" d="M24.8,23.9l-3.6-3.6v-0.3
			l3.6-3.6l0.1,0l4.3,2.4c1.2,0.7,1.2,1.8,0,2.5L24.8,23.9L24.8,23.9z"/>
	</g>
	<g id="g80">
		
			<linearGradient id="path88_00000001648578495057745390000001676023686686193074_" gradientUnits="userSpaceOnUse" x1="24.5024" y1="-138.6665" x2="4.7395" y2="-118.9037" gradientTransform="matrix(1.0024 0 0 -0.9907 -8.922 -111.9367)">
			<stop  offset="0" style="stop-color:#FF3A44"/>
			<stop  offset="1" style="stop-color:#C31162"/>
		</linearGradient>
		<path id="path88" style="fill:url(#path88_00000001648578495057745390000001676023686686193074_);" d="M24.9,23.9l-3.7-3.6
			L10.4,31c0.4,0.4,1.1,0.5,1.8,0.1L24.9,23.9"/>
	</g>
	<g id="g90">
		
			<linearGradient id="path104_00000156576165621196468300000004243087164845919620_" gradientUnits="userSpaceOnUse" x1="9.2828" y1="-143.3834" x2="18.1074" y2="-134.559" gradientTransform="matrix(1.0024 0 0 -0.9907 -8.922 -111.9367)">
			<stop  offset="0" style="stop-color:#32A071"/>
			<stop  offset="6.850000e-02" style="stop-color:#2DA771"/>
			<stop  offset="0.4762" style="stop-color:#15CF74"/>
			<stop  offset="0.8009" style="stop-color:#06E775"/>
			<stop  offset="1" style="stop-color:#00F076"/>
		</linearGradient>
		<path id="path104" style="fill:url(#path104_00000156576165621196468300000004243087164845919620_);" d="M24.9,16.6L12.2,9.5
			c-0.7-0.4-1.4-0.4-1.8,0.1l10.9,10.7L24.9,16.6z"/>
	</g>
	<g>
		<path class="st1" d="M42.4,11c0,1.7-1.2,2.8-3,2.8h-1.8V8.2h1.8C41.2,8.2,42.4,9.3,42.4,11z M39.4,13.1c1.3,0,2-0.8,2-2
			c0-1.3-0.7-2.1-2-2.1h-0.9v4.1H39.4z"/>
		<path class="st1" d="M45.2,13.9c-1.3,0-2.2-0.9-2.2-2.3c0-1.4,1-2.3,2.2-2.3c1.3,0,2.2,0.9,2.2,2.3C47.5,13,46.5,13.9,45.2,13.9z
			 M45.2,13.1c0.7,0,1.4-0.5,1.4-1.5c0-1-0.6-1.5-1.3-1.5c-0.7,0-1.3,0.5-1.3,1.5C43.9,12.6,44.5,13.1,45.2,13.1z"/>
		<path class="st1" d="M47.9,9.4h0.9l0.9,3.5l0.9-3.5h1l0.9,3.5l0.9-3.5h0.9l-1.4,4.4h-1l-0.9-3.3l-0.9,3.3h-1L47.9,9.4z"/>
		<path class="st1" d="M58.1,11.3c0-0.8-0.4-1.2-1.1-1.2c-0.7,0-1.1,0.4-1.1,1.2v2.5H55V9.4h0.9v0.5c0.3-0.4,0.8-0.6,1.3-0.6
			c1,0,1.8,0.6,1.8,1.9v2.6h-0.9V11.3z"/>
		<path class="st1" d="M60.2,7.9h0.9v5.9h-0.9V7.9z"/>
		<path class="st1" d="M64.2,13.9C63,13.9,62,13,62,11.6c0-1.4,1-2.3,2.2-2.3c1.3,0,2.2,0.9,2.2,2.3C66.5,13,65.5,13.9,64.2,13.9z
			 M64.2,13.1c0.7,0,1.4-0.5,1.4-1.5c0-1-0.6-1.5-1.3-1.5c-0.7,0-1.3,0.5-1.3,1.5C62.9,12.6,63.5,13.1,64.2,13.1z"/>
		<path class="st1" d="M69.2,9.3c0.7,0,1.3,0.4,1.5,0.7V9.4h0.9v4.4h-0.9v-0.7c-0.3,0.4-0.8,0.7-1.5,0.7c-1.1,0-2.1-0.9-2.1-2.3
			S68,9.3,69.2,9.3z M69.4,10.1c-0.7,0-1.3,0.5-1.3,1.5s0.7,1.5,1.3,1.5c0.7,0,1.3-0.5,1.3-1.5C70.7,10.6,70.1,10.1,69.4,10.1z"/>
		<path class="st1" d="M74.6,9.3c0.6,0,1.2,0.3,1.5,0.7V7.9H77v5.9h-0.9v-0.7c-0.3,0.4-0.8,0.7-1.5,0.7c-1.2,0-2.1-0.9-2.1-2.3
			S73.4,9.3,74.6,9.3z M74.8,10.1c-0.7,0-1.3,0.5-1.3,1.5s0.7,1.5,1.3,1.5c0.7,0,1.3-0.5,1.3-1.5C76.1,10.6,75.5,10.1,74.8,10.1z"/>
		<path class="st1" d="M82.2,13.9C81,13.9,80,13,80,11.6c0-1.4,1-2.3,2.2-2.3c1.3,0,2.2,0.9,2.2,2.3C84.5,13,83.5,13.9,82.2,13.9z
			 M82.2,13.1c0.7,0,1.4-0.5,1.4-1.5c0-1-0.6-1.5-1.3-1.5c-0.7,0-1.3,0.5-1.3,1.5C81,12.6,81.5,13.1,82.2,13.1z"/>
		<path class="st1" d="M88.6,11.3c0-0.8-0.4-1.2-1.1-1.2c-0.7,0-1.1,0.4-1.1,1.2v2.5h-0.9V9.4h0.9v0.5c0.3-0.4,0.8-0.6,1.3-0.6
			c1,0,1.8,0.6,1.8,1.9v2.6h-0.9V11.3z"/>
		<path class="st1" d="M92.8,10.1h-0.5V9.4h0.5V8.3h0.9v1.1h1.1v0.7h-1.1v2.4c0,0.3,0.1,0.5,0.5,0.5h0.6v0.8h-0.7
			c-0.8,0-1.3-0.3-1.3-1.2V10.1z"/>
		<path class="st1" d="M95.7,7.9h0.9v2c0.3-0.4,0.8-0.6,1.4-0.6c1,0,1.8,0.6,1.8,1.9v2.6h-0.9v-2.5c0-0.8-0.4-1.2-1.1-1.2
			c-0.7,0-1.1,0.4-1.1,1.2v2.5h-0.9V7.9z"/>
		<path class="st1" d="M102.8,13.9c-1.3,0-2.2-0.9-2.2-2.3c0-1.4,0.9-2.3,2.2-2.3c1.3,0,2.1,0.9,2.1,2.2c0,0.2,0,0.3,0,0.4h-3.4
			c0.1,0.7,0.6,1.2,1.3,1.2c0.6,0,0.9-0.3,1-0.6h1C104.5,13.3,103.8,13.9,102.8,13.9z M101.5,11.2h2.4c0-0.7-0.6-1.1-1.2-1.1
			C102.1,10.1,101.6,10.5,101.5,11.2z"/>
	</g>
</g>
</svg>
